# xmcd
#
# Track frame offsets:
#	150
#	12689
#	26207
#	42400
#	63157
#	80659
#	94592
#	111290
#	126537
#	143464
#	157574
#	171025
#	187774
#	204391
#	218809
#	232640
#	247715
#	261081
#	275792
#	288876
#	303619
#	316408
#	331261
#	346686
#
# Disc length: 4773 seconds
#
# Revision: 1
# Processed by: cddbd v1.5.2PL0 Copyright (c) Steve Scherf et al.
# Submitted via: audiograbber 1.83.01
#
DISCID=4812a318
DTITLE=Various Artist - KetNet Hits Vol. 8
DYEAR=2015
DGENRE=Top 40
TTITLE0=Ghost Rockers - Help Mij
TTITLE1=Omi - Cheerleader (Felix Jaehn Radio Edit)
TTITLE2=Laura Omloop feat. Monsif - Zo Zonder Jou
TTITLE3=Ed Sheeran - Thinking Out Loud
TTITLE4=Slongs Dievanongs - iFoon
TTITLE5=Christine And The Queens - Christine
TTITLE6=One Direction - Night Changes
TTITLE7=Carly Rae Jepsen - I Really Like You
TTITLE8=Calvin Harris feat. Ellie Goulding - Outside
TTITLE9=Gers Pardoel - Nooit Meer Alleen
TTITLE10=Meghan Trainor - Lips Are Movin
TTITLE11=Galantis - Runaway (U and I)
TTITLE12=Emma Bale - All I Want
TTITLE13=DJ Fresh feat. Ella Eyre - Gravity
TTITLE14=De KetnetBand - KetNet Verjaardagslied (Er Is Er Eentje Jarig)
TTITLE15=Charli XCX - Break The Rule
TTITLE16=Laura Tesoro - Funky Love
TTITLE17=G.R.L. - Ugly Heart
TTITLE18=Avicii - The Nights
TTITLE19=Walk The Moon - Shut Up And Dance
TTITLE20=Nielson - Ik Heb Een Meisje Thuis
TTITLE21=Ian Thomas feat. Tyga - Cheers
TTITLE22=David Guetta feat. Emeli Sandé - What I Did For Love
TTITLE23=Jérémie En Emma - Bouw Een Brug
EXTD=
EXTT0=
EXTT1=
EXTT2=
EXTT3=
EXTT4=
EXTT5=
EXTT6=
EXTT7=
EXTT8=
EXTT9=
EXTT10=
EXTT11=
EXTT12=
EXTT13=
EXTT14=
EXTT15=
EXTT16=
EXTT17=
EXTT18=
EXTT19=
EXTT20=
EXTT21=
EXTT22=
EXTT23=
PLAYORDER=
